<?xml version="1.0" encoding="UTF-8"?>
<svg version="1.1" xmlns="http://www.w3.org/2000/svg" width="300" height="87">
<path d="M0 0 C1.81207947 -0.01407143 1.81207947 -0.01407143 3.6607666 -0.02842712 C4.96187378 -0.01719315 6.26298096 -0.00595917 7.60351562 0.00561523 C8.95585203 0.0054602 10.30818888 0.00397045 11.66052246 0.00120544 C14.49181818 -0.00017768 17.32260678 0.01236381 20.15380859 0.03515625 C23.77888294 0.06354153 27.40311496 0.06080285 31.02825165 0.04806614 C33.81987677 0.04110356 36.61130797 0.04890467 39.40290833 0.06132317 C41.38818259 0.06802133 43.37348414 0.06369867 45.35876465 0.05921936 C46.56681763 0.07190353 47.77487061 0.08458771 49.01953125 0.09765625 C50.08224243 0.10305923 51.14495361 0.10846222 52.23986816 0.11402893 C55.39314016 0.5553668 56.75584317 1.28231902 59.00976562 3.50170898 C60.69059319 8.54419169 60.19569194 13.82613134 60.19506836 19.10595703 C60.19723959 21.16452181 60.21536311 23.22253693 60.234375 25.28100586 C60.25078394 36.43361567 60.25078394 36.43361567 58.85351562 41.26733398 C58.57507813 42.33467773 58.29664062 43.40202148 58.00976562 44.50170898 C60.29040323 47.62187236 60.29040323 47.62187236 63.00976562 50.50170898 C64.6473872 56.1787971 64.26245618 62.03735117 62.00976562 67.50170898 C59.69187207 70.16063925 57.0690276 71.78440898 54.00976562 73.50170898 C53.25308594 73.95288086 52.49640625 74.40405273 51.71679688 74.86889648 C38.10508977 82.3742097 21.76241593 83.79446771 6.86523438 79.55249023 C0.08306311 77.05672543 -9.24167876 73.15619732 -13.06054688 66.68920898 C-15.23096541 61.58234184 -15.62876326 56.25766343 -13.74023438 51.06420898 C-11.99023437 48.50170898 -11.99023437 48.50170898 -10.24023438 47.12670898 C-8.58275701 45.36128792 -8.58275701 45.36128792 -9.3972168 41.89135742 C-9.49980804 41.17250366 -9.60239929 40.4536499 -9.70809937 39.7130127 C-10.41231241 34.19356678 -10.25577673 28.57716541 -10.28540039 23.01879883 C-10.29701186 21.50015006 -10.31760526 19.9815449 -10.34692383 18.46313477 C-10.38949606 16.25175702 -10.40574143 14.04156985 -10.41601562 11.82983398 C-10.43059814 10.51917969 -10.44518066 9.20852539 -10.46020508 7.8581543 C-9.56667833 1.47674874 -6.04951251 0.00094592 0 0 Z " fill="#52493F" transform="translate(18.990234375,4.498291015625)"/>
<path d="M0 0 C1.81207947 -0.01407143 1.81207947 -0.01407143 3.6607666 -0.02842712 C4.96187378 -0.01719315 6.26298096 -0.00595917 7.60351562 0.00561523 C8.95585203 0.0054602 10.30818888 0.00397045 11.66052246 0.00120544 C14.49181818 -0.00017768 17.32260678 0.01236381 20.15380859 0.03515625 C23.77888294 0.06354153 27.40311496 0.06080285 31.02825165 0.04806614 C33.81987677 0.04110356 36.61130797 0.04890467 39.40290833 0.06132317 C41.38818259 0.06802133 43.37348414 0.06369867 45.35876465 0.05921936 C46.56681763 0.07190353 47.77487061 0.08458771 49.01953125 0.09765625 C50.08224243 0.10305923 51.14495361 0.10846222 52.23986816 0.11402893 C55.39314016 0.5553668 56.75584317 1.28231902 59.00976562 3.50170898 C60.69059319 8.54419169 60.19569194 13.82613134 60.19506836 19.10595703 C60.19723959 21.16452181 60.21536311 23.22253693 60.234375 25.28100586 C60.25078394 36.43361567 60.25078394 36.43361567 58.85351562 41.26733398 C58.57507813 42.33467773 58.29664062 43.40202148 58.00976562 44.50170898 C60.29040323 47.62187236 60.29040323 47.62187236 63.00976562 50.50170898 C64.6473872 56.1787971 64.26245618 62.03735117 62.00976562 67.50170898 C59.69187207 70.16063925 57.0690276 71.78440898 54.00976562 73.50170898 C53.25308594 73.95288086 52.49640625 74.40405273 51.71679688 74.86889648 C38.10508977 82.3742097 21.76241593 83.79446771 6.86523438 79.55249023 C0.08306311 77.05672543 -9.24167876 73.15619732 -13.06054688 66.68920898 C-15.23096541 61.58234184 -15.62876326 56.25766343 -13.74023438 51.06420898 C-11.99023437 48.50170898 -11.99023437 48.50170898 -10.24023438 47.12670898 C-8.58275701 45.36128792 -8.58275701 45.36128792 -9.3972168 41.89135742 C-9.49980804 41.17250366 -9.60239929 40.4536499 -9.70809937 39.7130127 C-10.41231241 34.19356678 -10.25577673 28.57716541 -10.28540039 23.01879883 C-10.29701186 21.50015006 -10.31760526 19.9815449 -10.34692383 18.46313477 C-10.38949606 16.25175702 -10.40574143 14.04156985 -10.41601562 11.82983398 C-10.43059814 10.51917969 -10.44518066 9.20852539 -10.46020508 7.8581543 C-9.56667833 1.47674874 -6.04951251 0.00094592 0 0 Z M-3.99023438 6.50170898 C-4.09335938 11.41045898 -4.19648438 16.31920898 -4.30273438 21.37670898 C-4.34825439 22.90408691 -4.39377441 24.43146484 -4.44067383 26.00512695 C-4.52412561 34.25016278 -3.68660832 40.47250262 1.00976562 47.50170898 C0.23375 47.61901367 -0.54226562 47.73631836 -1.34179688 47.85717773 C-4.2015576 48.31542831 -4.2015576 48.31542831 -6.36523438 50.81420898 C-8.24707772 53.31304527 -8.24707772 53.31304527 -7.74023438 55.81420898 C-7.49273438 56.37108398 -7.24523437 56.92795898 -6.99023438 57.50170898 C-6.33023437 57.50170898 -5.67023437 57.50170898 -4.99023438 57.50170898 C-5.98023438 58.82170898 -6.97023438 60.14170898 -7.99023438 61.50170898 C-5.53803799 67.87741958 1.39657601 70.60561315 7.13867188 73.61889648 C16.59252971 77.50404354 31.40152176 76.90228945 41.00976562 73.50170898 C46.79612439 70.82502602 52.24160463 67.77661195 57.00976562 63.50170898 C56.70039062 62.88295898 56.39101562 62.26420898 56.07226562 61.62670898 C55.38476562 60.25170898 54.69726562 58.87670898 54.00976562 57.50170898 C55.98976563 57.00670898 55.98976563 57.00670898 58.00976562 56.50170898 C57.4362367 52.63038871 55.5227221 50.41998102 53.00976562 47.50170898 C50.53476563 47.99670898 50.53476563 47.99670898 48.00976562 48.50170898 C48.35910156 47.81463867 48.7084375 47.12756836 49.06835938 46.41967773 C49.52339844 45.51862305 49.9784375 44.61756836 50.44726562 43.68920898 C50.89972656 42.79588867 51.3521875 41.90256836 51.81835938 40.98217773 C57.36436214 29.43558182 54.00976562 23.79054086 54.00976562 6.50170898 C34.86976562 6.50170898 15.72976562 6.50170898 -3.99023438 6.50170898 Z " fill="#0076CD" transform="translate(18.990234375,4.498291015625)"/>
<path d="M0 0 C17.82 0 35.64 0 54 0 C54.1546875 6.8990625 54.1546875 6.8990625 54.3125 13.9375 C54.35802002 15.36956787 54.40354004 16.80163574 54.45043945 18.27709961 C54.53552199 26.1469602 53.79540123 31.62595484 49 38 C48.67 37.34 48.34 36.68 48 36 C48.98210371 33.9911515 49.98440599 31.99212671 51 30 C51.33 28.35 51.66 26.7 52 25 C46.39 25 40.78 25 35 25 C34.505 23.02 34.505 23.02 34 21 C33.01 20.67 32.02 20.34 31 20 C32.32 19.67 33.64 19.34 35 19 C35 18.34 35 17.68 35 17 C31.04 17 27.08 17 23 17 C22.67 18.98 22.34 20.96 22 23 C23.32 22.67 24.64 22.34 26 22 C26 22.99 26 23.98 26 25 C24.35 25 22.7 25 21 25 C21 22.36 21 19.72 21 17 C20.01 17 19.02 17 18 17 C17.67 17.99 17.34 18.98 17 20 C16.34 18.35 15.68 16.7 15 15 C14.67 15.66 14.34 16.32 14 17 C11.03 17 8.06 17 5 17 C5 17.66 5 18.32 5 19 C5.515625 19.12375 6.03125 19.2475 6.5625 19.375 C9.72702351 20.18641628 12.86124985 21.0945913 16 22 C16 22.66 16 23.32 16 24 C13.11788698 24.96070434 11.30149956 25.10581883 8.3125 25.0625 C7.10013672 25.04896484 7.10013672 25.04896484 5.86328125 25.03515625 C5.24839844 25.02355469 4.63351563 25.01195313 4 25 C5.00332648 30.94074887 6.30912706 35.20186518 10 40 C9.67 40.66 9.34 41.32 9 42 C-2.07112393 28.65787629 0 18.99922358 0 0 Z " fill="#BADAEA" transform="translate(16,12)"/>
<path d="M0 0 C19.14 0 38.28 0 58 0 C58 29 58 29 54 38 C53.67 38.928125 53.34 39.85625 53 40.8125 C51.75989107 43.52523828 50.30147185 45.11697758 48 47 C46 47 44 47 42 47 C42.53109375 46.443125 43.0621875 45.88625 43.609375 45.3125 C44.31578125 44.549375 45.0221875 43.78625 45.75 43 C46.44609375 42.2575 47.1421875 41.515 47.859375 40.75 C54.27896954 32.50292964 54.63660268 25.34924089 54.75 15 C54.8325 10.38 54.915 5.76 55 1 C37.18 1 19.36 1 1 1 C0.98154599 25.21703049 0.98154599 25.21703049 12.1015625 45.40625 C18.1226042 50.46095168 24.01381998 55.16810625 32 56 C31.67 56.99 31.34 57.98 31 59 C24.18479548 58.70368676 19.61649218 55.69535803 14 52 C13.01 52.66 12.02 53.32 11 54 C11 52.35 11 50.7 11 49 C10.38125 48.7525 9.7625 48.505 9.125 48.25 C6.64931313 46.79371361 6.04874998 45.62187494 5 43 C2.03824877 43.61277612 0.61941217 44.25372522 -2 46 C-1.3125 44.0625 -1.3125 44.0625 0 42 C2.58203125 41.37109375 2.58203125 41.37109375 5 41 C4.64268799 40.4652002 4.28537598 39.93040039 3.91723633 39.37939453 C-0.85033725 31.28992558 -0.58435244 23.99673208 -0.3125 14.875 C-0.209375 9.96625 -0.10625 5.0575 0 0 Z " fill="#0F161C" transform="translate(15,11)"/>
<path d="M0 0 C-0.33 1.32 -0.66 2.64 -1 4 C-1 3.01 -1 2.02 -1 1 C-1.66 1 -2.32 1 -3 1 C-2.68289062 1.56460938 -2.36578125 2.12921875 -2.0390625 2.7109375 C-0.94486274 5.12146779 -0.61201329 7.00029723 -0.375 9.625 C-0.30023438 10.40101562 -0.22546875 11.17703125 -0.1484375 11.9765625 C0.14431104 15.96718728 0 20.00046321 0 24 C0.99 24 1.98 24 3 24 C3 22.35 3 20.7 3 19 C5.31 19 7.62 19 10 19 C10 18.01 10 17.02 10 16 C10.66 16 11.32 16 12 16 C12.33 16.66 12.66 17.32 13 18 C15.01669827 19.13350534 15.01669827 19.13350534 17 20 C17 20.99 17 21.98 17 23 C16.34 23 15.68 23 15 23 C15 23.66 15 24.32 15 25 C16.32 25.33 17.64 25.66 19 26 C17.80681575 26.87520368 16.5945121 27.7243709 15.375 28.5625 C14.70210937 29.03816406 14.02921875 29.51382813 13.3359375 30.00390625 C10.08825044 31.38878953 8.37115018 30.98977308 5 30 C1.89453125 28.14453125 1.89453125 28.14453125 -1.1875 25.8125 C-2.21230469 25.05582031 -3.23710937 24.29914062 -4.29296875 23.51953125 C-7.17752775 20.83476854 -8.43486861 18.58155833 -10 15 C-10.71917843 13.84787134 -11.44661642 12.7007924 -12.1875 11.5625 C-14.16795159 7.66988825 -14.35114932 5.30157915 -14 1 C-4.58997722 -0.14806378 -4.58997722 -0.14806378 0 0 Z " fill="#0778D0" transform="translate(34,36)"/>
<path d="M0 0 C0.99 0 1.98 0 3 0 C3 0.99 3 1.98 3 3 C3.99 3 4.98 3 6 3 C6 2.01 6 1.02 6 0 C7.32 0 8.64 0 10 0 C10 0.99 10 1.98 10 3 C10.66 3 11.32 3 12 3 C12 3.66 12 4.32 12 5 C11.34 5 10.68 5 10 5 C10 6.65 10 8.3 10 10 C10.66 10 11.32 10 12 10 C12.33 7.69 12.66 5.38 13 3 C14.9914056 2.61866701 16.99279077 2.28674418 19 2 C20 3 20 3 20 12 C13.4 12 6.8 12 0 12 C0 9.69 0 7.38 0 5 C-0.66 5 -1.32 5 -2 5 C-2 7.31 -2 9.62 -2 12 C-4.64 12 -7.28 12 -10 12 C-10.1875 9.625 -10.1875 9.625 -10 7 C-9.01 6.34 -8.02 5.68 -7 5 C-10.15132652 5.67449623 -10.15132652 5.67449623 -11.24609375 8.25 C-12.03995361 10.08238472 -12.83162368 11.9157197 -13.62109375 13.75 C-15 16 -15 16 -17.16015625 16.8125 C-17.76730469 16.874375 -18.37445313 16.93625 -19 17 C-19 16.01 -19 15.02 -19 14 C-18.01 14 -17.02 14 -16 14 C-16.56739868 9.87026372 -16.56739868 9.87026372 -18 6 C-18.33 7.98 -18.66 9.96 -19 12 C-19.99 12 -20.98 12 -22 12 C-22 9.69 -22 7.38 -22 5 C-22.99 5 -23.98 5 -25 5 C-25 7.31 -25 9.62 -25 12 C-25.99 12 -26.98 12 -28 12 C-28.33 9.03 -28.66 6.06 -29 3 C-24.45352102 1.8267151 -19.66972706 1.45871533 -15 2 C-14.34 2.66 -13.68 3.32 -13 4 C-12.67 3.34 -12.34 2.68 -12 2 C-10.56260487 1.97287934 -9.12506137 1.95354933 -7.6875 1.9375 C-6.48673828 1.92009766 -6.48673828 1.92009766 -5.26171875 1.90234375 C-3 2 -3 2 0 3 C0 2.01 0 1.02 0 0 Z M3 5 C3 6.65 3 8.3 3 10 C3.99 10 4.98 10 6 10 C6 8.35 6 6.7 6 5 C5.01 5 4.02 5 3 5 Z M-7 8 C-7 8.66 -7 9.32 -7 10 C-6.34 10 -5.68 10 -5 10 C-5 9.34 -5 8.68 -5 8 C-5.66 8 -6.32 8 -7 8 Z M16 8 C17 10 17 10 17 10 Z " fill="#3A3A3A" transform="translate(131,19)"/>
<path d="M0 0 C2.42726956 1.44934071 3.34963458 2.64233511 5 5 C5.33 3.68 5.66 2.36 6 1 C7.65 1 9.3 1 11 1 C11 1.99 11 2.98 11 4 C12.97536745 3.65213292 12.97536745 3.65213292 15 3 C15.33 2.34 15.66 1.68 16 1 C17.65 1 19.3 1 21 1 C21 1.66 21 2.32 21 3 C21.66 3 22.32 3 23 3 C23 3.99 23 4.98 23 6 C22.34 6 21.68 6 21 6 C21 6.99 21 7.98 21 9 C19.35 9 17.7 9 16 9 C16 8.01 16 7.02 16 6 C14.35 6 12.7 6 11 6 C11 6.99 11 7.98 11 9 C3.61538462 9.36923077 3.61538462 9.36923077 0.5 7.5 C0.005 7.005 -0.49 6.51 -1 6 C1.83430453 9.2542015 3.68607774 10.5206753 8 11 C8 11.33 8 11.66 8 12 C4.04 12 0.08 12 -4 12 C-4.33 13.98 -4.66 15.96 -5 18 C-3.68 17.67 -2.36 17.34 -1 17 C-1 17.99 -1 18.98 -1 20 C-2.65 20 -4.3 20 -6 20 C-6 17.36 -6 14.72 -6 12 C-6.99 12 -7.98 12 -9 12 C-9.33 12.99 -9.66 13.98 -10 15 C-10.2475 14.195625 -10.495 13.39125 -10.75 12.5625 C-11.7262609 9.84997953 -11.7262609 9.84997953 -14.0625 9.125 C-14.701875 9.08375 -15.34125 9.0425 -16 9 C-16.33 9.33 -16.66 9.66 -17 10 C-18.66617115 10.04063832 -20.33388095 10.042721 -22 10 C-22 7.03 -22 4.06 -22 1 C-20.35 1 -18.7 1 -17 1 C-17 1.99 -17 2.98 -17 4 C-16.4225 3.34 -15.845 2.68 -15.25 2 C-10.35931328 -1.00965337 -5.60044846 -0.93598655 0 0 Z " fill="#7A9BAA" transform="translate(43,17)"/>
<path d="M0 0 C1.975519 0.98118904 3.94376921 1.97031942 5.89453125 3 C15.84769172 8.18942786 23.90188958 9.36666103 34.6875 6.25 C38.31416698 5.0706992 41.47418552 3.93710978 44.5625 1.6875 C47 0 47 0 49.25 0 C51.49950949 1.285434 51.93794392 2.68956221 53 5 C41.15549811 13.20003977 29.18797666 15.55893799 15 14 C7.70154799 12.5084038 1.64365942 9.8740695 -4 5 C-4 4.34 -4 3.68 -4 3 C-2 1.375 -2 1.375 0 0 Z " fill="#EEEDED" transform="translate(19,63)"/>
<path d="M0 0 C3.54470259 0.29539188 4.78215295 0.77626519 7.3125 3.375 C9 6 9 6 9 9 C7.68 9.33 6.36 9.66 5 10 C5.99 11.32 6.98 12.64 8 14 C5.83077563 19.4882562 1.04082576 21.43638004 -4 24 C-15.28709816 28.61422252 -29.18238785 30.37268776 -40.9375 26.4375 C-46.3193275 24.1180314 -51.81332181 21.14126953 -56 17 C-56 13 -56 13 -54 10 C-54.99 9.67 -55.98 9.34 -57 9 C-56.67 7.68 -56.34 6.36 -56 5 C-54.68 5.99 -53.36 6.98 -52 8 C-52.2475 9.175625 -52.2475 9.175625 -52.5 10.375 C-53.0623707 12.88208039 -53.0623707 12.88208039 -53 15 C-43.62182714 23.09933111 -32.53309056 24.92655394 -20.4921875 24.45703125 C-11.36312576 23.76366007 -3.42844481 20.20435954 4 15 C3.505 11.535 3.505 11.535 3 8 C3.66 8 4.32 8 5 8 C4.505 7.1028125 4.505 7.1028125 4 6.1875 C3 4 3 4 3 1 C1.68 1.33 0.36 1.66 -1 2 C-0.67 1.34 -0.34 0.68 0 0 Z " fill="#1D2229" transform="translate(68,52)"/>
<path d="M0 0 C1.65 0.33 3.3 0.66 5 1 C5 1.66 5 2.32 5 3 C5.99 3 6.98 3 8 3 C8 5.64 8 8.28 8 11 C9.65 11 11.3 11 13 11 C13 10.01 13 9.02 13 8 C11.68 8.33 10.36 8.66 9 9 C9.33 7.02 9.66 5.04 10 3 C13.96 3 17.92 3 22 3 C22 3.66 22 4.32 22 5 C21.01 5.33 20.02 5.66 19 6 C19.66 6.33 20.32 6.66 21 7 C21.625 9.5625 21.625 9.5625 22 12 C20.35 12.66 18.7 13.32 17 14 C17 14.33 17 14.66 17 15 C15.2984375 15.2165625 15.2984375 15.2165625 13.5625 15.4375 C10.19222799 15.61171478 10.19222799 15.61171478 9 17 C9.99 17 10.98 17 12 17 C12 17.66 12 18.32 12 19 C8.04 19.495 8.04 19.495 4 20 C3.63883954 18.5225254 3.28624952 17.04295325 2.9375 15.5625 C2.74027344 14.73878906 2.54304688 13.91507813 2.33984375 13.06640625 C2.22769531 12.38449219 2.11554687 11.70257813 2 11 C2.33 10.67 2.66 10.34 3 10 C3 9.34 3 8.68 3 8 C1.39125 7.814375 1.39125 7.814375 -0.25 7.625 C-3.37863615 7.10356064 -5.33480424 6.59911746 -8 5 C-8 4.34 -8 3.68 -8 3 C-5.03 3 -2.06 3 1 3 C0.67 2.01 0.34 1.02 0 0 Z " fill="#615C54" transform="translate(29,26)"/>
<path d="M0 0 C17.82 0 35.64 0 54 0 C54.1546875 6.8990625 54.1546875 6.8990625 54.3125 13.9375 C54.35802002 15.36956787 54.40354004 16.80163574 54.45043945 18.27709961 C54.53552199 26.1469602 53.79540123 31.62595484 49 38 C48.67 37.34 48.34 36.68 48 36 C48.98210371 33.9911515 49.98440599 31.99212671 51 30 C51.33 28.35 51.66 26.7 52 25 C46.39 25 40.78 25 35 25 C35 24.01 35 23.02 35 22 C40.94 22 46.88 22 53 22 C53 15.4 53 8.8 53 2 C36.17 2 19.34 2 2 2 C2 10.25 2 18.5 2 27 C1.34 26.34 0.68 25.68 0 25 C0 16.75 0 8.5 0 0 Z " fill="#ABB0B5" transform="translate(16,12)"/>
<path d="M0 0 C5.61 0 11.22 0 17 0 C15.77482907 8.57619653 13.97085275 15.38931364 7 21 C4.1875 22.3125 4.1875 22.3125 2 23 C2.33 21.02 2.66 19.04 3 17 C2.34 17 1.68 17 1 17 C1.25 15.125 1.25 15.125 2 13 C3.31647119 12.30062468 4.65022151 11.63270867 6 11 C6.33 10.01 6.66 9.02 7 8 C5.35 7.67 3.7 7.34 2 7 C5 5 5 5 7 5 C7 4.01 7 3.02 7 2 C6.21625 2.495 5.4325 2.99 4.625 3.5 C2 5 2 5 0 5 C0.33 5.99 0.66 6.98 1 8 C3.01508358 8.73323796 3.01508358 8.73323796 5 9 C5 9.66 5 10.32 5 11 C0.125 10.125 0.125 10.125 -1 9 C-1.23728814 2.47457627 -1.23728814 2.47457627 0 0 Z " fill="#0E7CD1" transform="translate(51,37)"/>
<path d="M0 0 C1.01513672 -0.04930664 1.01513672 -0.04930664 2.05078125 -0.09960938 C4.03125 -0.12109375 4.03125 -0.12109375 7.5 0.4375 C9.46875 2.96484375 9.46875 2.96484375 10.5 5.4375 C10.5 4.1175 10.5 2.7975 10.5 1.4375 C13.375 0.8125 13.375 0.8125 16.5 0.4375 C18.5 2.4375 18.5 2.4375 18.6953125 4.3828125 C18.63020833 6.40104167 18.56510417 8.41927083 18.5 10.4375 C14.21 10.4375 9.92 10.4375 5.5 10.4375 C5.5 8.1275 5.5 5.8175 5.5 3.4375 C4.84 3.4375 4.18 3.4375 3.5 3.4375 C3.5 5.7475 3.5 8.0575 3.5 10.4375 C2.695625 10.251875 1.89125 10.06625 1.0625 9.875 C0.216875 9.730625 -0.62875 9.58625 -1.5 9.4375 C-1.83 9.7675 -2.16 10.0975 -2.5 10.4375 C-5.4375 10.625 -5.4375 10.625 -8.5 10.4375 C-10.5 8.4375 -10.5 8.4375 -10.8125 5.4375 C-10.709375 4.4475 -10.60625 3.4575 -10.5 2.4375 C-6.90259819 0.03923213 -4.16533639 0.03570288 0 0 Z M-6.5 2.4375 C-7.51111093 5.48663228 -7.51111093 5.48663228 -6.5 8.4375 C-5.84 8.4375 -5.18 8.4375 -4.5 8.4375 C-4.5 6.7875 -4.5 5.1375 -4.5 3.4375 C-5.16 3.1075 -5.82 2.7775 -6.5 2.4375 Z M13.5 6.4375 C14.5 8.4375 14.5 8.4375 14.5 8.4375 Z " fill="#3A3A3A" transform="translate(201.5,20.5625)"/>
<path d="M0 0 C1.2065625 0.309375 1.2065625 0.309375 2.4375 0.625 C4.6155989 0.67979966 4.6155989 0.67979966 7.4375 0.125 C12.09433091 -0.5740169 16.740234 -0.46006115 21.4375 -0.375 C22.81875018 2.38750036 22.62829306 4.57231099 22.4375 7.625 C21.7775 8.285 21.1175 8.945 20.4375 9.625 C19.1175 9.625 17.7975 9.625 16.4375 9.625 C16.4375 11.275 16.4375 12.925 16.4375 14.625 C15.4475 14.625 14.4575 14.625 13.4375 14.625 C13.1075 12.315 12.7775 10.005 12.4375 7.625 C11.7775 8.285 11.1175 8.945 10.4375 9.625 C7.4375 9.75 7.4375 9.75 4.4375 9.625 C2.77031258 9.625 1.10324209 9.68059408 -0.5625 9.75 C-3.5625 9.625 -3.5625 9.625 -5.5625 7.625 C-5.875 4.625 -5.875 4.625 -5.5625 1.625 C-2.5625 -0.375 -2.5625 -0.375 0 0 Z M-2.5625 2.625 C-2.2325 4.275 -1.9025 5.925 -1.5625 7.625 C-0.9025 7.625 -0.2425 7.625 0.4375 7.625 C0.4375 5.975 0.4375 4.325 0.4375 2.625 C-0.5525 2.625 -1.5425 2.625 -2.5625 2.625 Z M16.4375 2.625 C16.4375 4.275 16.4375 5.925 16.4375 7.625 C17.4275 7.295 18.4175 6.965 19.4375 6.625 C19.4375 5.305 19.4375 3.985 19.4375 2.625 C18.4475 2.625 17.4575 2.625 16.4375 2.625 Z M4.4375 4.625 C4.4375 5.285 4.4375 5.945 4.4375 6.625 C5.4275 6.295 6.4175 5.965 7.4375 5.625 C6.4475 5.295 5.4575 4.965 4.4375 4.625 Z " fill="#3A3A3A" transform="translate(249.5625,21.375)"/>
<path d="M0 0 C3.70653731 1.23551244 4.64915435 2.96665078 7 6 C7.66 6.33 8.32 6.66 9 7 C9.625 9.0625 9.625 9.0625 10 11 C10.99 10.34 11.98 9.68 13 9 C13.70125 9.5053125 14.4025 10.010625 15.125 10.53125 C22.92112335 15.88897975 22.92112335 15.88897975 32 16 C34.56944197 15.33194509 37.0876156 14.59590238 39.60546875 13.75390625 C42.05331971 12.98321256 44.47734006 12.46151683 47 12 C40.84967809 17.19724539 31.34806291 19.80590714 23.32421875 19.390625 C16.28531168 18.20761541 9.14631887 16.14631887 4 11 C3.4225 11.309375 2.845 11.61875 2.25 11.9375 C0.15705816 12.92583364 -1.74535275 13.5168613 -4 14 C-3.01 11.69 -2.02 9.38 -1 7 C-1.99 6.67 -2.98 6.34 -4 6 C-2.84826645 3.53199953 -1.95216435 1.95216435 0 0 Z " fill="#6A696B" transform="translate(17,53)"/>
<path d="M0 0 C0.66 2.31 1.32 4.62 2 7 C1.34 7 0.68 7 0 7 C0.66 9.31 1.32 11.62 2 14 C1.4225 13.484375 0.845 12.96875 0.25 12.4375 C-1.81810267 10.76620095 -1.81810267 10.76620095 -3.8125 11.28515625 C-6.32803132 12.10719595 -8.78322096 13.04148014 -11.25 14 C-15.90895872 15.7260035 -20.05743084 16.62697591 -25 17 C-24.67 16.01 -24.34 15.02 -24 14 C-24.66 13.67 -25.32 13.34 -26 13 C-10.60273973 3 -10.60273973 3 -7 3 C-6.175 2.505 -5.35 2.01 -4.5 1.5 C-2 0 -2 0 0 0 Z " fill="#12171D" transform="translate(71,53)"/>
<path d="M0 0 C3.33333333 0 6.66666667 0 10 0 C11.56041016 -0.05220703 11.56041016 -0.05220703 13.15234375 -0.10546875 C14.40144531 -0.13253906 15.65054688 -0.15960938 16.9375 -0.1875 C18.18402344 -0.22230469 19.43054688 -0.25710938 20.71484375 -0.29296875 C24 0 24 0 25.94140625 1.51171875 C26.29074219 2.00285156 26.64007813 2.49398438 27 3 C27.33 2.01 27.66 1.02 28 0 C30.31 0 32.62 0 35 0 C35 0.99 35 1.98 35 3 C35.66 3 36.32 3 37 3 C37 2.01 37 1.02 37 0 C39.64 0 42.28 0 45 0 C45 0.99 45 1.98 45 3 C45.99 3 46.98 3 48 3 C48 4.98 48 6.96 48 9 C47.01 9 46.02 9 45 9 C45 9.99 45 10.98 45 12 C42.69 12 40.38 12 38 12 C37.505 10.515 37.505 10.515 37 9 C36.34 9 35.68 9 35 9 C35 9.99 35 10.98 35 12 C33.54207116 12.05399736 32.08357288 12.09279177 30.625 12.125 C29.81289063 12.14820313 29.00078125 12.17140625 28.1640625 12.1953125 C26 12 26 12 24 10 C23.01 10.495 23.01 10.495 22 11 C22 9.68 22 8.36 22 7 C22.495 7.309375 22.99 7.61875 23.5 7.9375 C26.97986781 9.41644382 30.24028509 9.62402851 34 10 C34 9.01 34 8.02 34 7 C35.65 7 37.3 7 39 7 C39 7.99 39 8.98 39 10 C40.65 10 42.3 10 44 10 C44 9.01 44 8.02 44 7 C44.66 7 45.32 7 46 7 C46 6.01 46 5.02 46 4 C45.34 4 44.68 4 44 4 C44 3.34 44 2.68 44 2 C42.35 2 40.7 2 39 2 C38.67 2.99 38.34 3.98 38 5 C36.68 5 35.36 5 34 5 C34 4.01 34 3.02 34 2 C32.35 2 30.7 2 29 2 C29 3.65 29 5.3 29 7 C28.2575 6.175 27.515 5.35 26.75 4.5 C22.77135509 1.14152756 18.71236585 1.48088185 13.70703125 1.53125 C10.68369707 2.05477107 9.94302791 2.73814708 8 5 C7.34 5 6.68 5 6 5 C6 4.01 6 3.02 6 2 C4.35 2 2.7 2 1 2 C1 4.97 1 7.94 1 11 C3.64 10.34 6.28 9.68 9 9 C8.01 10.485 8.01 10.485 7 12 C3.375 12.1875 3.375 12.1875 0 12 C0 8.04 0 4.08 0 0 Z " fill="#58636B" transform="translate(20,16)"/>
<path d="M0 0 C0.66 0 1.32 0 2 0 C2.33 0.66 2.66 1.32 3 2 C5.01669827 3.13350534 5.01669827 3.13350534 7 4 C7 4.99 7 5.98 7 7 C6.34 7 5.68 7 5 7 C5 7.66 5 8.32 5 9 C6.32 9.33 7.64 9.66 9 10 C7.80681575 10.87520368 6.5945121 11.7243709 5.375 12.5625 C4.36566406 13.27599609 4.36566406 13.27599609 3.3359375 14.00390625 C0.08089174 15.39192743 -1.62205139 15.00196974 -5 14 C-8.17578125 12.0390625 -8.17578125 12.0390625 -11.3125 9.625 C-12.36050781 8.83351563 -13.40851562 8.04203125 -14.48828125 7.2265625 C-17 5 -17 5 -18 2 C-17.34 2 -16.68 2 -16 2 C-14.824375 3.2065625 -14.824375 3.2065625 -13.625 4.4375 C-11.18633325 6.81810326 -10.2727674 7.63635918 -7 8 C-7 6.35 -7 4.7 -7 3 C-4.69 3 -2.38 3 0 3 C0 2.01 0 1.02 0 0 Z " fill="#2D83CA" transform="translate(44,52)"/>
<path d="M0 0 C2.475 0.495 2.475 0.495 5 1 C5.33 1.66 5.66 2.32 6 3 C6.433125 2.505 6.86625 2.01 7.3125 1.5 C9 0 9 0 12 0 C10.79618552 2.49361571 9.54571278 4.68143083 8 7 C8.66 7.66 9.32 8.32 10 9 C11.32 7.35 12.64 5.7 14 4 C15.65 4.33 17.3 4.66 19 5 C19 6.32 19 7.64 19 9 C17.68 9 16.36 9 15 9 C15 9.66 15 10.32 15 11 C16.65 11 18.3 11 20 11 C19.67 11.99 19.34 12.98 19 14 C17.20906809 14.08086147 15.41710372 14.13912702 13.625 14.1875 C12.12839844 14.23970703 12.12839844 14.23970703 10.6015625 14.29296875 C9.74304688 14.19628906 8.88453125 14.09960938 8 14 C7.34 13.01 6.68 12.02 6 11 C5.01 12.485 5.01 12.485 4 14 C3.01 14 2.02 14 1 14 C0.67 9.38 0.34 4.76 0 0 Z " fill="#3A3A3A" transform="translate(82,17)"/>
<path d="M0 0 C6.4 -0.49230769 6.4 -0.49230769 9.4375 2 C10.2109375 2.99 10.2109375 2.99 11 4 C11.33 2.68 11.66 1.36 12 0 C13.65 0 15.3 0 17 0 C17 0.99 17 1.98 17 3 C18.97536745 2.65213292 18.97536745 2.65213292 21 2 C21.33 1.34 21.66 0.68 22 0 C23.65 0 25.3 0 27 0 C27 0.66 27 1.32 27 2 C27.66 2 28.32 2 29 2 C29 2.99 29 3.98 29 5 C28.34 5 27.68 5 27 5 C27 5.99 27 6.98 27 8 C25.35 8 23.7 8 22 8 C22 7.01 22 6.02 22 5 C20.35 5 18.7 5 17 5 C17 5.99 17 6.98 17 8 C9.61538462 8.36923077 9.61538462 8.36923077 6.5 6.5 C6.005 6.005 5.51 5.51 5 5 C5 5.99 5 6.98 5 8 C3.35 8 1.7 8 0 8 C0 5.36 0 2.72 0 0 Z " fill="#F6F6F6" transform="translate(37,18)"/>
<path d="M0 0 C2.4145175 2.4145175 3.04915725 4.49726109 4.25 7.6875 C8.52168752 18.01587414 15.09978001 23.71472631 25 29 C28.23272532 29.75952173 28.23272532 29.75952173 31 30 C30.505 31.485 30.505 31.485 30 33 C23.18479548 32.70368676 18.61649218 29.69535803 13 26 C12.01 26.66 11.02 27.32 10 28 C10 26.35 10 24.7 10 23 C9.38125 22.7525 8.7625 22.505 8.125 22.25 C5.64931313 20.79371361 5.04874998 19.62187494 4 17 C1.03824877 17.61277612 -0.38058783 18.25372522 -3 20 C-2.3125 18.0625 -2.3125 18.0625 -1 16 C1.625 15.25 1.625 15.25 4 15 C3.34 14.01 2.68 13.02 2 12 C1.3671875 10.09765625 1.3671875 10.09765625 0.875 8.0625 C0.70742188 7.39347656 0.53984375 6.72445312 0.3671875 6.03515625 C0 4 0 4 0 0 Z " fill="#202226" transform="translate(16,37)"/>
<path d="M0 0 C0.99 0 1.98 0 3 0 C3 0.99 3 1.98 3 3 C3.99 3 4.98 3 6 3 C6 3.66 6 4.32 6 5 C5.01 5 4.02 5 3 5 C3 6.65 3 8.3 3 10 C3.99 10 4.98 10 6 10 C6.12375 9.360625 6.2475 8.72125 6.375 8.0625 C6.58125 7.381875 6.7875 6.70125 7 6 C7.66 5.67 8.32 5.34 9 5 C8.34 5 7.68 5 7 5 C7.33 4.01 7.66 3.02 8 2 C9.66611905 1.957279 11.33382885 1.95936168 13 2 C14 3 14 3 14.09765625 5.06640625 C14.08605469 5.89011719 14.07445312 6.71382812 14.0625 7.5625 C14.05347656 8.38878906 14.04445313 9.21507812 14.03515625 10.06640625 C14.02355469 10.70449219 14.01195312 11.34257812 14 12 C7.66666667 12 1.33333333 12 -5 12 C-5.33 9.03 -5.66 6.06 -6 3 C-5.195625 2.87625 -4.39125 2.7525 -3.5625 2.625 C-2.716875 2.41875 -1.87125 2.2125 -1 2 C-0.67 1.34 -0.34 0.68 0 0 Z M9 8 C9 8.66 9 9.32 9 10 C9.66 10 10.32 10 11 10 C11 9.34 11 8.68 11 8 C10.34 8 9.68 8 9 8 Z " fill="#3A3A3A" transform="translate(278,19)"/>
<path d="M0 0 C0.99 0 1.98 0 3 0 C3 0.99 3 1.98 3 3 C6.465 2.505 6.465 2.505 10 2 C10 5.3 10 8.6 10 12 C9.01 12 8.02 12 7 12 C6.67 9.69 6.34 7.38 6 5 C5.01 5 4.02 5 3 5 C3 6.65 3 8.3 3 10 C3.99 10 4.98 10 6 10 C6 10.66 6 11.32 6 12 C4.02 12 2.04 12 0 12 C0 9.69 0 7.38 0 5 C-0.66 5 -1.32 5 -2 5 C-2 7.31 -2 9.62 -2 12 C-4.31 12 -6.62 12 -9 12 C-9.33 10.35 -9.66 8.7 -10 7 C-9.01 6.34 -8.02 5.68 -7 5 C-7.66 5 -8.32 5 -9 5 C-8.67 4.01 -8.34 3.02 -8 2 C-5.36 2.33 -2.72 2.66 0 3 C0 2.01 0 1.02 0 0 Z M-7 8 C-7 8.66 -7 9.32 -7 10 C-6.34 10 -5.68 10 -5 10 C-5 9.34 -5 8.68 -5 8 C-5.66 8 -6.32 8 -7 8 Z " fill="#3A3A3A" transform="translate(180,19)"/>
<path d="M0 0 C0.66 0 1.32 0 2 0 C2.33 0.66 2.66 1.32 3 2 C5.32156597 2.40729228 7.6568787 2.74438677 10 3 C10 2.01 10 1.02 10 0 C10.99 0 11.98 0 13 0 C13 2.97 13 5.94 13 9 C7.39 9 1.78 9 -4 9 C-4.33 9.66 -4.66 10.32 -5 11 C-5 10.01 -5 9.02 -5 8 C-5.99 7.67 -6.98 7.34 -8 7 C-6.68 6.67 -5.36 6.34 -4 6 C-4 5.01 -4 4.02 -4 3 C-2.68 3 -1.36 3 0 3 C0 2.01 0 1.02 0 0 Z " fill="#91CCE2" transform="translate(55,25)"/>
<path d="M0 0 C16.17 0 32.34 0 49 0 C49 1.32 49 2.64 49 4 C48.01 4 47.02 4 46 4 C46 3.01 46 2.02 46 1 C43.36 1 40.72 1 38 1 C38 1.99 38 2.98 38 4 C37.34 4 36.68 4 36 4 C36 3.01 36 2.02 36 1 C33.69 1 31.38 1 29 1 C28.67 2.32 28.34 3.64 28 5 C27.65066406 4.51015625 27.30132812 4.0203125 26.94140625 3.515625 C24.02344115 1.23761603 21.5778893 1.67470756 17.9375 1.75 C16.06384766 1.77320312 16.06384766 1.77320312 14.15234375 1.796875 C11.0989915 1.78851514 11.0989915 1.78851514 9 3 C9 2.34 9 1.68 9 1 C6.36 1 3.72 1 1 1 C1 4.96 1 8.92 1 13 C2.093125 12.835 3.18625 12.67 4.3125 12.5 C8 12 8 12 11 12 C11 12.66 11 13.32 11 14 C8.03 14 5.06 14 2 14 C2 14.66 2 15.32 2 16 C2.598125 16.12375 3.19625 16.2475 3.8125 16.375 C6 17 6 17 9 19 C6.03 19 3.06 19 0 19 C0 12.73 0 6.46 0 0 Z " fill="#8FCDE5" transform="translate(19,15)"/>
<path d="M0 0 C0 0.99 0 1.98 0 3 C-0.66 3.66 -1.32 4.32 -2 5 C-1.34 5.33 -0.68 5.66 0 6 C-0.25 7.875 -0.25 7.875 -1 10 C-2.31647119 10.69937532 -3.65022151 11.36729133 -5 12 C-5.33 12.99 -5.66 13.98 -6 15 C-5.34 15 -4.68 15 -4 15 C-4 16.65 -4 18.3 -4 20 C-3.01 20 -2.02 20 -1 20 C-3 22 -3 22 -6.125 22.125 C-7.548125 22.063125 -7.548125 22.063125 -9 22 C-9 21.34 -9 20.68 -9 20 C-8.34 20 -7.68 20 -7 20 C-7.33 19.01 -7.66 18.02 -8 17 C-8.99 16.67 -9.98 16.34 -11 16 C-11.06058594 15.38511719 -11.12117188 14.77023438 -11.18359375 14.13671875 C-11.26738281 13.32847656 -11.35117187 12.52023438 -11.4375 11.6875 C-11.51871094 10.88699219 -11.59992187 10.08648437 -11.68359375 9.26171875 C-11.95265693 6.83912821 -11.95265693 6.83912821 -13 4 C-11.68 4 -10.36 4 -9 4 C-7.97971135 5.31787285 -6.98028616 6.65210653 -6 8 C-3.90584196 8.79623822 -3.90584196 8.79623822 -2 9 C-2 8.34 -2 7.68 -2 7 C-3.65 6.67 -5.3 6.34 -7 6 C-7 5.01 -7 4.02 -7 3 C-2.77777778 0 -2.77777778 0 0 0 Z " fill="#8F714A" transform="translate(58,39)"/>
<path d="M0 0 C1.9375 0.1875 1.9375 0.1875 4 1 C5.12890625 3.05078125 5.12890625 3.05078125 6 5 C0.74417729 8.62322383 -4.64153744 11.82870427 -11 13 C-13.265625 12.5703125 -13.265625 12.5703125 -15 12 C-15 11.01 -15 10.02 -15 9 C-13.33388095 8.957279 -11.66617115 8.95936168 -10 9 C-9.67 9.33 -9.34 9.66 -9 10 C-9 9.01 -9 8.02 -9 7 C-9.66 6.67 -10.32 6.34 -11 6 C-10.28972656 5.65066406 -9.57945313 5.30132812 -8.84765625 4.94140625 C-7.92855469 4.48636719 -7.00945313 4.03132813 -6.0625 3.5625 C-5.14597656 3.11003906 -4.22945312 2.65757813 -3.28515625 2.19140625 C-1.09471096 1.19474606 -1.09471096 1.19474606 0 0 Z " fill="#EAE9EA" transform="translate(66,63)"/>
<path d="M0 0 C1.32 0 2.64 0 4 0 C4 1.98 4 3.96 4 6 C5.65 6 7.3 6 9 6 C9 4.02 9 2.04 9 0 C9.99 0 10.98 0 12 0 C12 4.62 12 9.24 12 14 C11.01 14 10.02 14 9 14 C9 11.69 9 9.38 9 7 C7.35 7 5.7 7 4 7 C4 9.31 4 11.62 4 14 C2.68 14 1.36 14 0 14 C-0.19393875 11.85473901 -0.37998676 9.70876323 -0.5625 7.5625 C-0.71912109 5.77005859 -0.71912109 5.77005859 -0.87890625 3.94140625 C-0.91886719 2.97074219 -0.95882812 2.00007813 -1 1 C-0.67 0.67 -0.34 0.34 0 0 Z " fill="#3A3A3A" transform="translate(231,17)"/>
<path d="M0 0 C3.96 0 7.92 0 12 0 C12 0.66 12 1.32 12 2 C11.01 2.33 10.02 2.66 9 3 C9.66 3.33 10.32 3.66 11 4 C11.625 6.5625 11.625 6.5625 12 9 C9.02588876 10.23921302 6.14737182 11.30058404 3 12 C3 9.69 3 7.38 3 5 C1.68 5.33 0.36 5.66 -1 6 C-0.67 4.02 -0.34 2.04 0 0 Z " fill="#5D5245" transform="translate(39,29)"/>
<path d="M0 0 C1.32 0 2.64 0 4 0 C5.484375 1.53125 5.484375 1.53125 6.75 3.5 C7.39195312 4.47453125 7.39195312 4.47453125 8.046875 5.46875 C8.36140625 5.9740625 8.6759375 6.479375 9 7 C9 5.02 9 3.04 9 1 C9.99 0.67 10.98 0.34 12 0 C12 4.62 12 9.24 12 14 C11.01 14 10.02 14 9 14 C7.61328125 12.46875 7.61328125 12.46875 6.3125 10.5 C5.65701172 9.52546875 5.65701172 9.52546875 4.98828125 8.53125 C4.66214844 8.0259375 4.33601562 7.520625 4 7 C3.67 9.31 3.34 11.62 3 14 C2.34 14 1.68 14 1 14 C0.67 9.38 0.34 4.76 0 0 Z " fill="#3A3A3A" transform="translate(157,17)"/>
<path d="M0 0 C1.65 0 3.3 0 5 0 C5 0.99 5 1.98 5 3 C5.556875 2.505 6.11375 2.01 6.6875 1.5 C9.38162983 -0.24754367 10.85375007 -0.26218749 14 0 C13.62875 0.5775 13.2575 1.155 12.875 1.75 C11.70833333 4 11.70833333 4 12.875 6.25 C13.24625 6.8275 13.6175 7.405 14 8 C12.700625 7.979375 11.40125 7.95875 10.0625 7.9375 C8.70834367 7.91600546 7.35243917 7.92851801 6 8 C5.67 8.33 5.34 8.66 5 9 C3.33382885 9.04063832 1.66611905 9.042721 0 9 C0 6.03 0 3.06 0 0 Z " fill="#E8E9EA" transform="translate(21,18)"/>
<path d="M0 0 C0.99 0 1.98 0 3 0 C3.33 1.32 3.66 2.64 4 4 C4.33 3.34 4.66 2.68 5 2 C11.53916878 0.85824037 17.44506398 1.11049929 24 2 C24 2.99 24 3.98 24 5 C26.64 5 29.28 5 32 5 C32 5.33 32 5.66 32 6 C30.741875 6.185625 29.48375 6.37125 28.1875 6.5625 C27.12595703 6.71912109 27.12595703 6.71912109 26.04296875 6.87890625 C24 7 24 7 21 6 C19.44578271 5.91893314 17.88832973 5.89243102 16.33203125 5.90234375 C15.43935547 5.90556641 14.54667969 5.90878906 13.62695312 5.91210938 C12.69818359 5.92048828 11.76941406 5.92886719 10.8125 5.9375 C9.40194336 5.94426758 9.40194336 5.94426758 7.96289062 5.95117188 C5.64186288 5.96295374 3.32096356 5.97940442 1 6 C0.67 4.02 0.34 2.04 0 0 Z M14 3 C15 5 15 5 15 5 Z " fill="#282C30" transform="translate(98,39)"/>
<path d="M0 0 C0.33 0 0.66 0 1 0 C1.24372097 4.26741625 1.45823285 8.53505738 1.64697266 12.80517578 C1.71500343 14.25445701 1.79070054 15.70340114 1.87451172 17.15185547 C2.34532263 25.38253783 2.68229574 31.83573546 -2 39 C-2.33 39.94875 -2.66 40.8975 -3 41.875 C-4 44 -4 44 -6 45.3125 C-8.46781106 46.16081005 -10.36668213 46 -13 46 C-12.46890625 45.443125 -11.9378125 44.88625 -11.390625 44.3125 C-10.68421875 43.549375 -9.9778125 42.78625 -9.25 42 C-8.20585938 40.88625 -8.20585938 40.88625 -7.140625 39.75 C-0.71799893 31.49903513 -0.36170327 24.36809415 -0.25 14 C-0.22179363 12.6392857 -0.19185979 11.27860606 -0.16015625 9.91796875 C-0.08981479 6.61192015 -0.03693772 3.30656239 0 0 Z " fill="#201F22" transform="translate(70,12)"/>
<path d="M0 0 C3.33333333 0 6.66666667 0 10 0 C11.56041016 -0.05220703 11.56041016 -0.05220703 13.15234375 -0.10546875 C14.40144531 -0.13253906 15.65054688 -0.15960938 16.9375 -0.1875 C18.18402344 -0.22230469 19.43054688 -0.25710938 20.71484375 -0.29296875 C24 0 24 0 25.94140625 1.51171875 C26.29074219 2.00285156 26.64007813 2.49398438 27 3 C27.66 2.34 28.32 1.68 29 1 C29 2.98 29 4.96 29 7 C28.2575 6.175 27.515 5.35 26.75 4.5 C22.77135509 1.14152756 18.71236585 1.48088185 13.70703125 1.53125 C10.68369707 2.05477107 9.94302791 2.73814708 8 5 C7.34 5 6.68 5 6 5 C6 4.01 6 3.02 6 2 C4.35 2 2.7 2 1 2 C1 4.97 1 7.94 1 11 C3.64 10.34 6.28 9.68 9 9 C8.01 10.485 8.01 10.485 7 12 C3.375 12.1875 3.375 12.1875 0 12 C0 8.04 0 4.08 0 0 Z " fill="#535E66" transform="translate(20,16)"/>
<path d="M0 0 C0.99 0.33 1.98 0.66 3 1 C3.28875 1.825 3.5775 2.65 3.875 3.5 C4.24625 4.325 4.6175 5.15 5 6 C7.43259568 6.75319799 7.43259568 6.75319799 10 7 C10.99 7.66 11.98 8.32 13 9 C15.11280345 9.63292383 15.11280345 9.63292383 17 10 C17 10.66 17 11.32 17 12 C15.10306139 11.71561048 13.20747973 11.42216208 11.3125 11.125 C10.25675781 10.96257812 9.20101563 10.80015625 8.11328125 10.6328125 C3.41735444 9.67830793 -0.39263722 8.20654469 -4 5 C-4 4.34 -4 3.68 -4 3 C-2.1875 1.3125 -2.1875 1.3125 0 0 Z " fill="#CBC8C8" transform="translate(19,63)"/>
<path d="M0 0 C-1.32 0 -2.64 0 -4 0 C-4 2.31 -4 4.62 -4 7 C-5.32 7 -6.64 7 -8 7 C-8 8.65 -8 10.3 -8 12 C-8.99 12 -9.98 12 -11 12 C-11 9.36 -11 6.72 -11 4 C-11.66 3.67 -12.32 3.34 -13 3 C-12.28125 1.0546875 -12.28125 1.0546875 -11 -1 C-8.90625 -1.6796875 -8.90625 -1.6796875 -6.5 -1.875 C-5.7059375 -1.95492187 -4.911875 -2.03484375 -4.09375 -2.1171875 C-2 -2 -2 -2 0 0 Z " fill="#3C4145" transform="translate(45,48)"/>
<path d="M0 0 C6.4 -0.49230769 6.4 -0.49230769 9.4375 2 C10.2109375 2.99 10.2109375 2.99 11 4 C11.66 2.68 12.32 1.36 13 0 C13 1.98 13 3.96 13 6 C10.6875 6.625 10.6875 6.625 8 7 C7.01 6.34 6.02 5.68 5 5 C5 5.99 5 6.98 5 8 C3.35 8 1.7 8 0 8 C0 5.36 0 2.72 0 0 Z " fill="#F0F0F1" transform="translate(37,18)"/>
<path d="M0 0 C1.2065625 0.0309375 1.2065625 0.0309375 2.4375 0.0625 C2.4375 0.7225 2.4375 1.3825 2.4375 2.0625 C6.7275 2.0625 11.0175 2.0625 15.4375 2.0625 C15.4375 2.7225 15.4375 3.3825 15.4375 4.0625 C16.0975 4.7225 16.7575 5.3825 17.4375 6.0625 C10.8375 6.0625 4.2375 6.0625 -2.5625 6.0625 C-2.8925 4.4125 -3.2225 2.7625 -3.5625 1.0625 C-2.5625 0.0625 -2.5625 0.0625 0 0 Z M-0.5625 1.0625 C-0.5625 2.3825 -0.5625 3.7025 -0.5625 5.0625 C0.4275 5.0625 1.4175 5.0625 2.4375 5.0625 C2.4375 4.0725 2.4375 3.0825 2.4375 2.0625 C1.4475 1.7325 0.4575 1.4025 -0.5625 1.0625 Z " fill="#282C30" transform="translate(148.5625,38.9375)"/>
<path d="M0 0 C3.54470259 0.29539188 4.78215295 0.77626519 7.3125 3.375 C9 6 9 6 9 9 C7.68 9.33 6.36 9.66 5 10 C5.99 11.32 6.98 12.64 8 14 C6.86500606 17.29148243 6.00716624 17.9959869 2.875 19.75 C1.92625 20.1625 0.9775 20.575 0 21 C0.3125 19.125 0.3125 19.125 1 17 C1.99 16.34 2.98 15.68 4 15 C3.67 12.69 3.34 10.38 3 8 C3.66 8 4.32 8 5 8 C4.67 7.401875 4.34 6.80375 4 6.1875 C3 4 3 4 3 1 C1.68 1.33 0.36 1.66 -1 2 C-0.67 1.34 -0.34 0.68 0 0 Z " fill="#0F161C" transform="translate(68,52)"/>
<path d="M0 0 C0 1.32 0 2.64 0 4 C-0.99 4.33 -1.98 4.66 -3 5 C-3.33 5.33 -3.66 5.66 -4 6 C-3.01 6 -2.02 6 -1 6 C-1 6.66 -1 7.32 -1 8 C-3.64 8.33 -6.28 8.66 -9 9 C-9.66 6.03 -10.32 3.06 -11 0 C-6.94952424 -1.35015859 -4.2079832 -0.62084998 0 0 Z " fill="#484C4C" transform="translate(42,37)"/>
<path d="M0 0 C0.66 2.31 1.32 4.62 2 7 C-2.77573323 9.61895048 -6.84434881 8.83119431 -12 8 C-4.43243243 0 -4.43243243 0 0 0 Z " fill="#9B9798" transform="translate(71,53)"/>
<path d="M0 0 C2.97 0 5.94 0 9 0 C9 0.66 9 1.32 9 2 C10.32 2 11.64 2 13 2 C13 3.32 13 4.64 13 6 C9.37 6 5.74 6 2 6 C1.34 4.02 0.68 2.04 0 0 Z " fill="#282C30" transform="translate(83,39)"/>
<path d="M0 0 C3.3 0 6.6 0 10 0 C10 0.66 10 1.32 10 2 C10.99 2 11.98 2 13 2 C13.33 3.32 13.66 4.64 14 6 C10.37 6 6.74 6 3 6 C2.01 4.02 1.02 2.04 0 0 Z " fill="#282C30" transform="translate(129,39)"/>
<path d="M0 0 C1.875 0.25 1.875 0.25 4 1 C5.1328125 3.046875 5.1328125 3.046875 6 5 C4.54735962 5.8638129 3.0876837 6.71580454 1.625 7.5625 C0.40683594 8.27599609 0.40683594 8.27599609 -0.8359375 9.00390625 C-1.55007812 9.33261719 -2.26421875 9.66132812 -3 10 C-3.66 9.67 -4.32 9.34 -5 9 C-4.01593623 6.04780869 -2.87752159 4.42513206 -1 2 C-0.67 1.34 -0.34 0.68 0 0 Z " fill="#DFDEDE" transform="translate(66,63)"/>
<path d="M0 0 C1.99954746 -0.04254356 4.00041636 -0.04080783 6 0 C6.33 0.33 6.66 0.66 7 1 C8.48638992 1.15655027 9.97949127 1.25066943 11.47265625 1.31640625 C12.82133789 1.37924805 12.82133789 1.37924805 14.19726562 1.44335938 C15.61555664 1.50233398 15.61555664 1.50233398 17.0625 1.5625 C18.01189453 1.60568359 18.96128906 1.64886719 19.93945312 1.69335938 C22.29281353 1.79979276 24.64628354 1.90181008 27 2 C23.21108692 4.52594205 20.13866748 4.33125499 15.75 4.3125 C15.01136719 4.32861328 14.27273437 4.34472656 13.51171875 4.36132812 C8.28075329 4.36594097 4.67643159 3.34440155 0 1 C0 0.67 0 0.34 0 0 Z " fill="#041A2B" transform="translate(26,76)"/>
<path d="M0 0 C1.76949095 -0.10815225 3.54087487 -0.18566083 5.3125 -0.25 C6.29863281 -0.29640625 7.28476562 -0.3428125 8.30078125 -0.390625 C11 0 11 0 14 4 C8.06 4 2.12 4 -4 4 C-2.68 3.67 -1.36 3.34 0 3 C0 2.01 0 1.02 0 0 Z " fill="#C8C5C6" transform="translate(38,73)"/>
<path d="M0 0 C3.34998521 1.11666174 3.79340222 1.74694925 5.6875 4.5625 C6.34298828 5.52349609 6.34298828 5.52349609 7.01171875 6.50390625 C7.33785156 6.99761719 7.66398437 7.49132813 8 8 C-1 8 -1 8 -4 6 C-2.84826645 3.53199953 -1.95216435 1.95216435 0 0 Z " fill="#CAC8C9" transform="translate(17,53)"/>
<path d="M0 0 C0.33 0 0.66 0 1 0 C1 3.63 1 7.26 1 11 C2.093125 10.835 3.18625 10.67 4.3125 10.5 C8 10 8 10 11 10 C11 10.66 11 11.32 11 12 C8.03 12 5.06 12 2 12 C2 12.66 2 13.32 2 14 C2.598125 14.12375 3.19625 14.2475 3.8125 14.375 C6 15 6 15 9 17 C6.03 17 3.06 17 0 17 C0 11.39 0 5.78 0 0 Z " fill="#87C1D8" transform="translate(19,17)"/>
<path d="M0 0 C0 5.28 0 10.56 0 16 C-0.99 16 -1.98 16 -3 16 C-3 11.38 -3 6.76 -3 2 C-3.66 1.67 -4.32 1.34 -5 1 C-3 0 -3 0 0 0 Z " fill="#3A3A3A" transform="translate(297,15)"/>
<path d="M0 0 C0.99 0 1.98 0 3 0 C3 5.28 3 10.56 3 16 C2.01 16 1.02 16 0 16 C-0.19389096 13.5211787 -0.38040123 11.04219069 -0.5625 8.5625 C-0.61857422 7.85544922 -0.67464844 7.14839844 -0.73242188 6.41992188 C-0.86190993 4.61572163 -0.93521608 2.80768048 -1 1 C-0.67 0.67 -0.34 0.34 0 0 Z " fill="#3A3A3A" transform="translate(221,15)"/>
<path d="M0 0 C0.8353125 0.495 0.8353125 0.495 1.6875 1 C4.30284522 2.1309601 6.1806646 2.15662974 9 2 C8.67 3.65 8.34 5.3 8 7 C5.66666667 7 3.33333333 7 1 7 C-0.68698082 7.61344757 -2.35965807 8.27095914 -4 9 C-3.01 7.02 -2.02 5.04 -1 3 C-0.34 3 0.32 3 1 3 C0.67 2.01 0.34 1.02 0 0 Z " fill="#5D5758" transform="translate(17,58)"/>
<path d="M0 0 C0 0.99 0 1.98 0 3 C-0.66 3.66 -1.32 4.32 -2 5 C-1.34 5.33 -0.68 5.66 0 6 C-0.1875 7.875 -0.1875 7.875 -1 10 C-3.5625 11.25 -3.5625 11.25 -6 12 C-6 11.01 -6 10.02 -6 9 C-4.68 9 -3.36 9 -2 9 C-2 8.34 -2 7.68 -2 7 C-3.65 6.67 -5.3 6.34 -7 6 C-7 5.01 -7 4.02 -7 3 C-2.77777778 0 -2.77777778 0 0 0 Z " fill="#515657" transform="translate(58,39)"/>
<path d="M0 0 C3.73487777 0.4979837 5.81237635 0.87491756 9 3 C10.9896995 3.39013716 12.99019869 3.73202649 15 4 C14.67 4.99 14.34 5.98 14 7 C7.84971823 6.62345214 4.77780324 4.90024754 0 1 C0 0.67 0 0.34 0 0 Z " fill="#131416" transform="translate(32,63)"/>
<path d="M0 0 C2.31 0 4.62 0 7 0 C5.37660195 1.70884005 3.70680947 3.37446717 2 5 C1.34 5 0.68 5 0 5 C0.33 5.99 0.66 6.98 1 8 C3.01508358 8.73323796 3.01508358 8.73323796 5 9 C5 9.66 5 10.32 5 11 C0.125 10.125 0.125 10.125 -1 9 C-1.23728814 2.47457627 -1.23728814 2.47457627 0 0 Z " fill="#0576CD" transform="translate(51,37)"/>
<path d="M0 0 C2.31 0 4.62 0 7 0 C7 0.99 7 1.98 7 3 C7.66 3 8.32 3 9 3 C9 2.01 9 1.02 9 0 C11.64 0 14.28 0 17 0 C16.67 0.66 16.34 1.32 16 2 C14.35 2 12.7 2 11 2 C10.67 2.99 10.34 3.98 10 5 C8.68 5 7.36 5 6 5 C6 4.01 6 3.02 6 2 C4.35 2 2.7 2 1 2 C0.67 1.34 0.34 0.68 0 0 Z " fill="#6D757C" transform="translate(48,16)"/>
<path d="M0 0 C6.96015253 0.7138618 12.8389367 3.89159024 19 7 C18.34 7.66 17.68 8.32 17 9 C10.25 7.125 10.25 7.125 8 6 C8 5.34 8 4.68 8 4 C7.01 4.33 6.02 4.66 5 5 C4.34 4.01 3.68 3.02 3 2 C2.01 1.34 1.02 0.68 0 0 Z " fill="#E6E4E5" transform="translate(19,65)"/>
<path d="M0 0 C3.08533175 3.08533175 4.1077888 7.03366798 5.68359375 11.0546875 C6.87794562 13.7269169 8.1419561 15.75734642 10 18 C7 18 7 18 4.4375 15.5 C0.76971989 10.83794215 0 5.88559396 0 0 Z " fill="#353134" transform="translate(16,37)"/>
<path d="M0 0 C3.96 0 7.92 0 12 0 C12 0.33 12 0.66 12 1 C10.02 1 8.04 1 6 1 C6 3.64 6 6.28 6 9 C5.34 9 4.68 9 4 9 C2.375 6.5 2.375 6.5 1 4 C1.66 3.34 2.32 2.68 3 2 C2.01 1.34 1.02 0.68 0 0 Z " fill="#8A8789" transform="translate(31,17)"/>
<path d="M0 0 C3.96 0 7.92 0 12 0 C12.66 1.98 13.32 3.96 14 6 C13.505 5.484375 13.01 4.96875 12.5 4.4375 C8.75285548 2.2828919 6.19155387 3.23154846 2 4 C2 3.34 2 2.68 2 2 C1.34 1.34 0.68 0.68 0 0 Z " fill="#5A5456" transform="translate(59,61)"/>
<path d="M0 0 C2.02045442 0.60183749 4.02111039 1.27306096 6 2 C6.33 2.66 6.66 3.32 7 4 C6.67 4.99 6.34 5.98 6 7 C4.72125 7.144375 3.4425 7.28875 2.125 7.4375 C-0.25692894 7.70642746 -1.84452691 7.92226346 -4 9 C-4 8.01 -4 7.02 -4 6 C-1.36 5.67 1.28 5.34 4 5 C4 4.34 4 3.68 4 3 C3.01 3 2.02 3 1 3 C0.67 2.01 0.34 1.02 0 0 Z " fill="#7C6446" transform="translate(37,40)"/>
<path d="M0 0 C0.99 0.33 1.98 0.66 3 1 C3.6875 3.0625 3.6875 3.0625 4 5 C2.35 5.66 0.7 6.32 -1 7 C-0.34 5.35 0.32 3.7 1 2 C0.401875 2.515625 -0.19625 3.03125 -0.8125 3.5625 C-1.534375 4.036875 -2.25625 4.51125 -3 5 C-3.99 4.67 -4.98 4.34 -6 4 C-3.1875 1.9375 -3.1875 1.9375 0 0 Z " fill="#E3E2E3" transform="translate(69,55)"/>
<path d="M0 0 C0.33 0.99 0.66 1.98 1 3 C1.66 3 2.32 3 3 3 C3 4.65 3 6.3 3 8 C3.99 8 4.98 8 6 8 C4 10 4 10 0.875 10.125 C-0.548125 10.063125 -0.548125 10.063125 -2 10 C-2 9.34 -2 8.68 -2 8 C-1.34 8 -0.68 8 0 8 C-0.185625 7.4225 -0.37125 6.845 -0.5625 6.25 C-1.04023546 3.79307475 -0.75729364 2.35602466 0 0 Z " fill="#676663" transform="translate(51,51)"/>
<path d="M0 0 C3.55420724 0.29618394 4.80337043 0.80337043 7.375 3.375 C7.91125 4.24125 8.4475 5.1075 9 6 C8.67 6.99 8.34 7.98 8 9 C5 8 5 8 3.8125 6.125 C3 4 3 4 3 1 C1.68 1.33 0.36 1.66 -1 2 C-0.67 1.34 -0.34 0.68 0 0 Z " fill="#1B242D" transform="translate(68,52)"/>
<path d="M0 0 C0.66 0.33 1.32 0.66 2 1 C1 4 1 4 -0.84765625 4.94921875 C-1.57855469 5.19285156 -2.30945313 5.43648438 -3.0625 5.6875 C-4.16271484 6.06455078 -4.16271484 6.06455078 -5.28515625 6.44921875 C-5.85105469 6.63097656 -6.41695312 6.81273438 -7 7 C-7.33 6.01 -7.66 5.02 -8 4 C-6.71349294 3.30289269 -5.42059335 2.61757124 -4.125 1.9375 C-3.40570313 1.55464844 -2.68640625 1.17179687 -1.9453125 0.77734375 C-1.30335937 0.52082031 -0.66140625 0.26429687 0 0 Z " fill="#1A1E22" transform="translate(67,70)"/>
<path d="M0 0 C0.99 1.32 1.98 2.64 3 4 C1.71073008 4.36279456 0.41846728 4.71496698 -0.875 5.0625 C-1.95394531 5.35833984 -1.95394531 5.35833984 -3.0546875 5.66015625 C-5 6 -5 6 -7 5 C-7 4.01 -7 3.02 -7 2 C-5.7934375 2.0309375 -5.7934375 2.0309375 -4.5625 2.0625 C-2.06645115 2.29633621 -2.06645115 2.29633621 -1 1 C-0.67 0.67 -0.34 0.34 0 0 Z " fill="#B4B0B0" transform="translate(58,70)"/>
<path d="M0 0 C1.65 0 3.3 0 5 0 C5 0.99 5 1.98 5 3 C4.01 3 3.02 3 2 3 C2 4.32 2 5.64 2 7 C-0.97 6.505 -0.97 6.505 -4 6 C-2.68 5.67 -1.36 5.34 0 5 C0 3.35 0 1.7 0 0 Z " fill="#856844" transform="translate(41,48)"/>
<path d="M0 0 C0.66 0.66 1.32 1.32 2 2 C0.68 2 -0.64 2 -2 2 C-2 3.65 -2 5.3 -2 7 C-3.32 7 -4.64 7 -6 7 C-5.67 5.02 -5.34 3.04 -5 1 C-2.625 0.375 -2.625 0.375 0 0 Z " fill="#0C61A6" transform="translate(43,46)"/>
<path d="M0 0 C3.72433382 1.2125738 7.37802806 2.50859979 11 4 C11 4.66 11 5.32 11 6 C9.55989519 5.74337755 8.1229313 5.46909179 6.6875 5.1875 C5.88699219 5.03667969 5.08648437 4.88585937 4.26171875 4.73046875 C1.76554413 3.92427764 0.67577894 2.97947998 -1 1 C-0.67 0.67 -0.34 0.34 0 0 Z " fill="#A9A3A4" transform="translate(25,69)"/>
<path d="M0 0 C0.99 0.33 1.98 0.66 3 1 C2.67 1.99 2.34 2.98 2 4 C-0.06640625 4.73046875 -0.06640625 4.73046875 -2.5625 5.1875 C-3.38878906 5.34605469 -4.21507812 5.50460938 -5.06640625 5.66796875 C-6.02353516 5.83232422 -6.02353516 5.83232422 -7 6 C-4.78499559 3.75982509 -2.68442961 1.67776851 0 0 Z " fill="#006BBB" transform="translate(56,62)"/>
<path d="M0 0 C0.33 0.99 0.66 1.98 1 3 C-1 5 -1 5 -4 7 C-4.66 6.67 -5.32 6.34 -6 6 C-4.90218919 2.70656758 -3.7827394 0 0 0 Z " fill="#A5A0A1" transform="translate(67,66)"/>
<path d="M0 0 C1.32 0.66 2.64 1.32 4 2 C3.67 3.32 3.34 4.64 3 6 C1.68 6 0.36 6 -1 6 C-1.33 4.68 -1.66 3.36 -2 2 C-1.34 2 -0.68 2 0 2 C0 1.34 0 0.68 0 0 Z " fill="#7C6243" transform="translate(45,33)"/>
<path d="M0 0 C2.64 0 5.28 0 8 0 C8.33 0.99 8.66 1.98 9 3 C6.03 3 3.06 3 0 3 C0 2.01 0 1.02 0 0 Z " fill="#A29B9C" transform="translate(38,73)"/>
<path d="M0 0 C2.97 1.65 5.94 3.3 9 5 C4.23374833 6.19156292 3.12120649 5.3415946 -1 3 C-0.67 2.01 -0.34 1.02 0 0 Z " fill="#0066B1" transform="translate(29,62)"/>
<path d="M0 0 C3.3 0.99 6.6 1.98 10 3 C10 3.33 10 3.66 10 4 C3.375 5.25 3.375 5.25 0 3 C0 2.01 0 1.02 0 0 Z " fill="#21272E" transform="translate(21,72)"/>
<path d="M0 0 C2.475 0.99 2.475 0.99 5 2 C4 5 4 5 2.15234375 5.94921875 C1.42144531 6.19285156 0.69054688 6.43648438 -0.0625 6.6875 C-1.16271484 7.06455078 -1.16271484 7.06455078 -2.28515625 7.44921875 C-2.85105469 7.63097656 -3.41695312 7.81273438 -4 8 C-4.33 7.34 -4.66 6.68 -5 6 C-3.02 5.34 -1.04 4.68 1 4 C0.67 2.68 0.34 1.36 0 0 Z " fill="#13202B" transform="translate(57,61)"/>
<path d="M0 0 C0.556875 0.33 1.11375 0.66 1.6875 1 C4.30284522 2.1309601 6.1806646 2.15662974 9 2 C8.67 3.32 8.34 4.64 8 6 C2.33846154 4.52307692 2.33846154 4.52307692 0.625 1.875 C0.41875 1.25625 0.2125 0.6375 0 0 Z " fill="#837E7F" transform="translate(17,58)"/>
<path d="M0 0 C1.65 0 3.3 0 5 0 C5 1.32 5 2.64 5 4 C4.01 4.33 3.02 4.66 2 5 C2 4.34 2 3.68 2 3 C1.34 3 0.68 3 0 3 C0 2.01 0 1.02 0 0 Z " fill="#385C75" transform="translate(37,37)"/>
<path d="M0 0 C3.3 0 6.6 0 10 0 C8.68 0.33 7.36 0.66 6 1 C6 1.66 6 2.32 6 3 C3.03 2.505 3.03 2.505 0 2 C0 1.34 0 0.68 0 0 Z " fill="#544C45" transform="translate(21,29)"/>
<path d="M0 0 C1.65 0 3.3 0 5 0 C5 0.99 5 1.98 5 3 C6.32 3 7.64 3 9 3 C9 3.66 9 4.32 9 5 C7.35 5 5.7 5 4 5 C3.67 4.01 3.34 3.02 3 2 C2.01 1.34 1.02 0.68 0 0 Z " fill="#708088" transform="translate(54,23)"/>
<path d="M0 0 C0 0.99 0 1.98 0 3 C-1.53125 4.38671875 -1.53125 4.38671875 -3.5 5.6875 C-4.47453125 6.34298828 -4.47453125 6.34298828 -5.46875 7.01171875 C-5.9740625 7.33785156 -6.479375 7.66398437 -7 8 C-5.98823563 4.59679258 -5.35156418 3.24274669 -2.375 1.1875 C-1.59125 0.795625 -0.8075 0.40375 0 0 Z " fill="#090A0C" transform="translate(61,56)"/>
<path d="M0 0 C1.98 0.99 1.98 0.99 4 2 C4 2.99 4 3.98 4 5 C2.68 5 1.36 5 0 5 C0 3.35 0 1.7 0 0 Z " fill="#434341" transform="translate(33,41)"/>
<path d="M0 0 C1.32 0 2.64 0 4 0 C4.33 0.99 4.66 1.98 5 3 C3.1875 3.625 3.1875 3.625 1 4 C0.01 3.34 -0.98 2.68 -2 2 C-1.34 2 -0.68 2 0 2 C0 1.34 0 0.68 0 0 Z " fill="#756753" transform="translate(27,30)"/>
<path d="M0 0 C1.32 0 2.64 0 4 0 C4 0.99 4 1.98 4 3 C2.68 3 1.36 3 0 3 C0 2.01 0 1.02 0 0 Z " fill="#3A3A3A" transform="translate(273,17)"/>
<path d="M0 0 C0.99 0 1.98 0 3 0 C3 0.99 3 1.98 3 3 C1.68 2.67 0.36 2.34 -1 2 C-0.67 1.34 -0.34 0.68 0 0 Z " fill="#3A3A3A" transform="translate(187,17)"/>
<path d="M0 0 C3 1 3 1 3 1 Z " fill="#282C30" transform="translate(103,39)"/>
</svg>
